<svg width="58" height="52" viewBox="0 0 58 52" fill="none" xmlns="http://www.w3.org/2000/svg">
<path d="M6.37779 6.37778H14.9111L20.6 0.688889H37.6667L43.3556 6.37778H51.8889C53.3977 6.37778 54.8447 6.97714 55.9116 8.04401C56.9784 9.11089 57.5778 10.5579 57.5778 12.0667V46.2C57.5778 47.7088 56.9784 49.1558 55.9116 50.2227C54.8447 51.2895 53.3977 51.8889 51.8889 51.8889H6.37779C4.86901 51.8889 3.42201 51.2895 2.35514 50.2227C1.28827 49.1558 0.688904 47.7088 0.688904 46.2V12.0667C0.688904 10.5579 1.28827 9.11089 2.35514 8.04401C3.42201 6.97714 4.86901 6.37778 6.37779 6.37778ZM29.1333 14.9111C25.3614 14.9111 21.7439 16.4095 19.0767 19.0767C16.4095 21.7439 14.9111 25.3614 14.9111 29.1333C14.9111 32.9053 16.4095 36.5228 19.0767 39.19C21.7439 41.8572 25.3614 43.3556 29.1333 43.3556C32.9053 43.3556 36.5228 41.8572 39.19 39.19C41.8572 36.5228 43.3556 32.9053 43.3556 29.1333C43.3556 25.3614 41.8572 21.7439 39.19 19.0767C36.5228 16.4095 32.9053 14.9111 29.1333 14.9111ZM29.1333 20.6C31.3965 20.6 33.567 21.499 35.1673 23.0994C36.7676 24.6997 37.6667 26.8702 37.6667 29.1333C37.6667 31.3965 36.7676 33.567 35.1673 35.1673C33.567 36.7676 31.3965 37.6667 29.1333 37.6667C26.8702 37.6667 24.6997 36.7676 23.0994 35.1673C21.4991 33.567 20.6 31.3965 20.6 29.1333C20.6 26.8702 21.4991 24.6997 23.0994 23.0994C24.6997 21.499 26.8702 20.6 29.1333 20.6Z" fill="#B1B1B1"/>
</svg>
